<svg width="401" height="439" viewBox="0 0 401 439" fill="none" xmlns="http://www.w3.org/2000/svg">
<path fill-rule="evenodd" clip-rule="evenodd" d="M178.222 235.357V439L22.2778 349.42C15.2231 345.339 9.74653 339.961 5.84792 333.284C1.94931 326.607 0 319.188 0 311.028V132.423L178.222 235.357ZM378.722 349.42L222.778 439V235.357L401 132.423V311.028C401 319.188 399.051 326.607 395.152 333.284C391.253 339.961 385.777 345.339 378.722 349.42ZM377.051 94.5881L311.332 132.98L134.224 31.1584L178.222 6.12041C185.277 2.04014 192.703 0 200.5 0C208.297 0 215.723 2.04014 222.778 6.12041L377.051 94.5881ZM266.776 159.131L200.5 196.966L23.3917 95.1445L90.225 56.7529L266.776 159.131ZM270.993 255.546C269.759 256.261 269 257.579 269 259.006V365.056C269 368.139 272.34 370.063 275.007 368.516L376.304 309.762C379.288 308.031 378.828 303.588 375.553 302.504L324.554 285.635C322.025 284.798 321.005 281.77 322.513 279.573L373.962 204.623C376.376 201.107 372.346 196.759 368.658 198.899L270.993 255.546Z" fill="url(#paint0_linear_511_18)"/>
<defs>
<linearGradient id="paint0_linear_511_18" x1="0.000536408" y1="439.005" x2="421.092" y2="20.1977" gradientUnits="userSpaceOnUse">
<stop stop-color="#8052FF"/>
<stop offset="0.596234" stop-color="#AE4CB4"/>
<stop offset="1" stop-color="#E24560"/>
</linearGradient>
</defs>
</svg>
