<svg width="758" height="439" viewBox="0 0 758 439" fill="none" xmlns="http://www.w3.org/2000/svg">
<path fill-rule="evenodd" clip-rule="evenodd" d="M500.102 438.293H692.126C704.163 438.293 714.467 434.008 723.039 425.437C731.61 416.866 735.896 406.563 735.896 394.527V147.796C742.462 143.784 747.751 138.587 751.763 132.204C755.775 125.822 757.781 118.436 757.781 110.048V44.3988C757.781 32.3632 753.495 22.0599 744.924 13.4891C736.352 4.91823 726.048 0.632812 714.011 0.632812H363.853C351.816 0.632812 341.512 4.91823 332.941 13.4891C324.369 22.0599 320.083 32.3632 320.083 44.3988V110.048C320.083 118.436 322.089 125.822 326.101 132.204C330.114 138.587 335.403 143.784 341.968 147.796V275.217L500.102 438.293ZM714.011 110.048H363.853V44.3988H714.011V110.048ZM604.587 263.229H473.277V219.463H604.587V263.229Z" fill="url(#paint0_linear_501_3)"/>
<path fill-rule="evenodd" clip-rule="evenodd" d="M291.585 141.87L218.5 212.672L437 438H0V1L305.618 1C304.707 1.7851 303.815 2.6148 302.94 3.48908C294.369 12.0599 290.083 32.3632 290.083 44.3988V130.048C290.083 134.239 290.584 138.18 291.585 141.87Z" fill="url(#paint1_linear_501_3)"/>
<defs>
<linearGradient id="paint0_linear_501_3" x1="320.084" y1="438.298" x2="738.378" y2="-17.1903" gradientUnits="userSpaceOnUse">
<stop stop-color="#8052FF"/>
<stop offset="0.596234" stop-color="#AE4CB4"/>
<stop offset="1" stop-color="#E24560"/>
</linearGradient>
<linearGradient id="paint1_linear_501_3" x1="0.000584564" y1="438.005" x2="417.667" y2="-16.7602" gradientUnits="userSpaceOnUse">
<stop stop-color="#8052FF"/>
<stop offset="0.596234" stop-color="#AE4CB4"/>
<stop offset="1" stop-color="#E24560"/>
</linearGradient>
</defs>
</svg>
